<svg xmlns="http://www.w3.org/2000/svg" viewBox="0 0 448 512"><!--!Font Awesome Free 6.4.0 by @fontawesome - https://fontawesome.com License - https://fontawesome.com/license (Commercial License) Copyright 2023 Fonticons, Inc.--><path fill="#a388f3" d="M224 256c70.7 0 128-57.3 128-128S294.7 0 224 0 96 57.3 96 128s57.3 128 128 128zm-80 80c-8.8 0-16-7.2-16-16s7.2-16 16-16 16 7.2 16 16-7.2 16-16 16zm-48-48c0-26.5 21.5-48 48-48s48 21.5 48 48-21.5 48-48 48-48-21.5-48-48zm224 128c0-44.2-35.8-80-80-80s-80 35.8-80 80c0 35.3 22.9 64.7 54 74.6V464c0 13.3 10.7 24 24 24h16c13.3 0 24-10.7 24-24v-21.4c31.1-9.9 54-39.3 54-74.6z"/></svg>
